<svg xmlns="http://www.w3.org/2000/svg" width="256" height="256"><path fill="#1976D2" fill-opacity=".239" fill-rule="evenodd" d="M0 128.004v128.004l128.25-.254 128.25-.254.254-127.75L257.008 0H0zm.485.496c0 70.4.119 99.053.265 63.672s.146-92.98 0-128S.485 58.1.485 128.5"/><path fill="#1976D2" fill-opacity=".124" fill-rule="evenodd" d="M0 128.004v128.004l128.25-.254 128.25-.254.254-127.75L257.008 0H0zm.485.496c0 70.4.119 99.053.265 63.672s.146-92.98 0-128S.485 58.1.485 128.5M100 63.5V72h-9v23.89l-4.75.375c-2.612.206 9.762.456 27.5.555L146 97v-3.943c0-3.923.021-3.943 4.25-4.25l4.25-.307v-25l-4.25-.307c-4.229-.307-4.25-.327-4.25-4.25V55h-46zm-29 39c0 .825.675 1.5 1.5 1.5s1.5-.675 1.5-1.5-.675-1.5-1.5-1.5-1.5.675-1.5 1.5m7 0c0 .825.675 1.5 1.5 1.5s1.5-.675 1.5-1.5-.675-1.5-1.5-1.5-1.5.675-1.5 1.5m28 2c0 2.444-.452 3.5-1.5 3.5-.833 0-1.5.889-1.5 2q0 2-2 2c-1.111 0-2 .667-2 1.5 0 1.083-1.111 1.5-4 1.5h-4v17h9v17h17.885l.308 4.25.307 4.25 4.75.305 4.75.305v3.887c0 3.859.032 3.89 4.25 4.196 4.229.306 4.251.328 4.557 4.557l.308 4.25H182v8h9v-25h-9v-9h-9v-8h-27v-16.89l-4.75-.305-4.75-.305v-8l-8.75-.289c-6.876-.227-8.75-.602-8.75-1.75 0-.804-.675-1.461-1.5-1.461-.833 0-1.5-.889-1.5-2q0-2-2-2c-1.619 0-2-.667-2-3.5 0-3.222-.238-3.5-3-3.5s-3 .278-3 3.5m14-2.073c0 .927.855 1.573 2.083 1.573 2.437 0 2.093-2.337-.416-2.823-.987-.192-1.667.318-1.667 1.25m8 .073c0 .825.45 1.5 1 1.5s1-.675 1-1.5-.45-1.5-1-1.5-1 .675-1 1.5m-53 4.083c0 1.766 2.153 1.459 2.771-.395.218-.654-.317-1.188-1.188-1.188-.87 0-1.583.713-1.583 1.583m6.25-.333c.229.688 1.017 1.25 1.75 1.25s1.521-.562 1.75-1.25c.248-.744-.461-1.25-1.75-1.25s-1.998.506-1.75 1.25m42.75.25c0 .825.675 1.5 1.5 1.5s1.5-.675 1.5-1.5-.675-1.5-1.5-1.5-1.5.675-1.5 1.5m7 0c0 .825.675 1.5 1.5 1.5s1.5-.675 1.5-1.5-.675-1.5-1.5-1.5-1.5.675-1.5 1.5m-53 3c0 .825.675 1.5 1.5 1.5s1.5-.675 1.5-1.5-.675-1.5-1.5-1.5-1.5.675-1.5 1.5m7 0c0 .825.675 1.5 1.5 1.5s1.5-.675 1.5-1.5-.675-1.5-1.5-1.5-1.5.675-1.5 1.5m42.638 0c-.35.914-.001 1.5.893 1.5.808 0 1.469-.675 1.469-1.5s-.402-1.5-.893-1.5-1.152.675-1.469 1.5m7.017-.042c-.415 1.081.022 1.542 1.46 1.542 1.139 0 1.876-.528 1.656-1.187-.617-1.852-2.461-2.062-3.116-.355"/><path fill="#1976D2" fill-opacity=".835" fill-rule="evenodd" d="M0 128.004v128.004l128.25-.254 128.25-.254.254-127.75L257.008 0H0zm.485.496c0 70.4.119 99.053.265 63.672s.146-92.98 0-128S.485 58.1.485 128.5M85.25 54.813c-3.063.296-3.25.54-3.25 4.25V63h-9v9h-9v25h40c22 0 40.338.112 40.75.25s.888-1.662 1.057-4l.308-4.25H155V63h-9v-9.231l-28.75.365c-15.812.201-30.213.507-32 .679M71 103c0 1.111.667 2 1.5 2 .825 0 1.5.675 1.5 1.5 0 .833.889 1.5 2 1.5s2-.667 2-1.5c0-.825.675-1.5 1.5-1.5s1.5.675 1.5 1.5c0 .833.889 1.5 2 1.5q2 0 2 2c0 1.111.667 2 1.5 2s1.5-.889 1.5-2-.667-2-1.5-2-1.5-.889-1.5-2q0-2-2-2c-1.111 0-2-.667-2-1.5 0-.825-.675-1.5-1.5-1.5s-1.5.675-1.5 1.5c0 .833-.889 1.5-2 1.5s-2-.667-2-1.5c0-.825-.675-1.5-1.5-1.5-.833 0-1.5.889-1.5 2m35 1.5c0 2.833-.381 3.5-2 3.5-1.111 0-2 .667-2 1.5 0 .825-.675 1.5-1.5 1.5-.833 0-1.5.889-1.5 2 0 1.893-.667 2-12.5 2-11.767 0-12.5-.115-12.5-1.969 0-1.339-.48-1.784-1.5-1.393-1.041.4-1.5-.069-1.5-1.531 0-1.44-.633-2.107-2-2.107-1.111 0-2-.667-2-1.5 0-.825-.675-1.5-1.5-1.5-1.296 0-1.5 3.611-1.5 26.5V158h9v17h8.885l.308 4.25c.306 4.24.316 4.25 4.307 4.25s4.001.01 4.307 4.25l.308 4.25h8.77l.308 4.25.307 4.25 36.25.262 36.25.263V192h9v-7.89l4.75-.305 4.75-.305.28-12.75.28-12.75H183v-9h-4.421c-4.049 0-4.473-.24-5.047-2.856-.345-1.571-.494-3.484-.33-4.25.241-1.128-2.322-1.447-13.452-1.672l-13.75-.278V123h-9v-8h-8.5c-7.111 0-8.5-.26-8.5-1.594 0-.876-.9-1.829-2-2.116s-2-1.146-2-1.907c0-.76-.675-1.383-1.5-1.383-1.048 0-1.5-1.056-1.5-3.5 0-3.333-.167-3.5-3.5-3.5s-3.5.167-3.5 3.5m14-1.906c0 .876.9 1.829 2 2.116s2 1.146 2 1.907c0 .76.623 1.383 1.383 1.383.761 0 1.631.947 1.934 2.105.625 2.388 3.016 2.089 3.506-.438.218-1.124-.352-1.667-1.75-1.667-1.176 0-2.073-.649-2.073-1.5 0-.833.889-1.5 2-1.5s2 .667 2 1.5c0 .825.623 1.5 1.383 1.5.761 0 1.631.947 1.934 2.105.625 2.388 3.016 2.089 3.506-.438.218-1.124-.352-1.667-1.75-1.667-1.406 0-2.073-.643-2.073-2 0-1.111-.667-2-1.5-2-.825 0-1.5-.675-1.5-1.5 0-.833-.889-1.5-2-1.5s-2 .667-2 1.5c0 .825-.675 1.5-1.5 1.5s-1.5-.675-1.5-1.5c0-.833-.889-1.5-2-1.5-1.163 0-2 .667-2 1.594M78 110c0 1.111.667 2 1.5 2s1.5-.889 1.5-2-.667-2-1.5-2-1.5.889-1.5 2"/><path fill="#1976D2" fill-opacity=".608" fill-rule="evenodd" d="M0 128.004v128.004l128.25-.254 128.25-.254.254-127.75L257.008 0H0zm.485.496c0 70.4.119 99.053.265 63.672s.146-92.98 0-128S.485 58.1.485 128.5m114.212-97.107c-.409 1.041-.508 2.129-.221 2.417.913.912 1.715-.583 1.333-2.482-.35-1.74-.404-1.737-1.112.065M126 32c0 1.1.173 2 .383 2s.619-.9.907-2c.287-1.1.115-2-.384-2-.498 0-.906.9-.906 2m6.063.179c-.034.923.724 2.473 1.687 3.444 1.668 1.682 1.656 1.725-.25.915-3.93-1.67-9.403-1.53-10.451.268-.912 1.563-.991 1.554-1.019-.115-.016-.995-.475-1.534-1.019-1.198-.589.364-.727-.117-.34-1.191.356-.991.28-1.468-.17-1.061-.449.408-1.421.24-2.159-.372-.987-.819-1.342-.817-1.342.009 0 .617.54 1.122 1.2 1.122 2.414 0-.736 1.85-3.7 2.173-2.01.219-2.913.822-2.736 1.827.203 1.149-.056 1.091-1.11-.25-1.704-2.17-2.654-2.234-2.654-.179 0 1.384-.202 1.37-1.686-.114-1.581-1.581-1.731-1.563-2.415.287-.42 1.136-2.039 2.234-3.819 2.59-3.829.766-4.652.537-4.256-1.184.181-.792-.16-1.06-.825-.649-.625.386-.894 1.331-.599 2.1S94.475 42 93.91 42c-.566 0-.745.457-.4 1.016.346.559 1.117.715 1.714.346.663-.41.796-.203.341.532-.551.892-1.091.914-2.09.085-.97-.805-1.909-.817-3.358-.042-1.602.858-2.238.719-3.132-.68-.982-1.537-1.06-1.465-.627.572.368 1.725.126 2.187-.931 1.781-.785-.301-1.427-.059-1.427.538s-.9.85-2 .562-2-.067-2 .491c0 .557-.739.73-1.641.383-1.311-.503-1.409-.349-.488.76.888 1.07.805 1.68-.359 2.646-.831.69-1.512.92-1.512.51s-.759-.127-1.687.628c-1.483 1.205-1.605 1.153-1.012-.43.406-1.082.281-1.558-.312-1.191-.544.336-.989 1.436-.989 2.445 0 1.731-2.519 3.584-4.324 3.182-.454-.101-.56.245-.235.77.324.524-.395 1.098-1.598 1.275-1.442.212-2.241 1.087-2.348 2.571-.088 1.238.214 2.25.672 2.25s.833.477.833 1.059-.518.739-1.152.347c-.633-.391-1.705.045-2.381.971-1.111 1.518-1.29 1.526-1.842.089-.803-2.093-2.625-.913-2.625 1.7 0 1.423.465 1.87 1.523 1.463 1.258-.482 1.332-.226.423 1.471-.62 1.16-1.713 1.82-2.507 1.515-1.9-.729-3.72 2.704-2.225 4.199.827.827.686 1.287-.541 1.758-.914.351-1.413 1.04-1.108 1.533s-.08.895-.853.895-2.487.97-3.809 2.156c-1.854 1.663-1.978 2.003-.542 1.489 1.457-.523 1.721-.302 1.216 1.014-.354.924-.203 1.954.336 2.287.616.381.634 1.156.05 2.08-.783 1.238-.935 1.194-.948-.276-.008-.963-.495-1.75-1.082-1.75s-.823.787-.523 1.75.112 2.425-.418 3.25c-.828 1.292-.963 1.265-.977-.191-.008-.93-.535-2.012-1.17-2.404q-1.152-.712-.335.61c.602.975.356 1.148-.93.654-1.17-.449-1.596-.257-1.289.58.253.688.985 1.132 1.627.987.878-.199.889.256.045 1.833-.901 1.684-.773 2.483.651 4.057 1.703 1.882 1.7 1.932-.094 1.243-1.449-.556-1.729-.356-1.25.893.34.885.08 1.807-.576 2.048-.872.321-.897.757-.093 1.616 2.243 2.395.196 6.71-2.925 6.168-.454-.079-.56.285-.236.809s-.351 1.251-1.501 1.616c-2.425.77-2.116 1.369 1.017 1.973 1.62.311 2.078.039 1.679-1-.301-.785-.164-1.665.304-1.954 1.612-.997 2.107 2.754.585 4.435-2.016 2.228-1.929 3.118.226 2.302 1.615-.612 1.61-.522-.064 1.167-1.283 1.293-1.503 2.141-.75 2.894.585.585 1.057 1.536 1.049 2.114s-.44.379-.959-.442c-.803-1.27-1.134-1.285-2.234-.103-.981 1.054-.99 1.218-.035.678.726-.41 1.51-.051 1.855.848.329.857.995 1.312 1.481 1.011.486-.3.616.152.289 1.006-.328.854-1.223 1.552-1.989 1.552-2.174 0-1.635 1.788.77 2.552 1.968.624 2.007.773.43 1.656-1.633.914-1.628 1.05.087 2.362 1.406 1.075 1.53 1.584.546 2.235-.986.652-.855 1.221.583 2.522 1.974 1.786 2.22 6.344.32 5.923-.621-.137-1.129.227-1.129.809s-.45.781-1 .441-1-.153-1 .416c0 .604 1.188.796 2.858.462 2.321-.464 2.961-.177 3.407 1.527.302 1.154.14 1.846-.358 1.537-1.794-1.108-.863 1.148 1.039 2.519 1.818 1.31 1.9 3.68.09 2.561-.455-.281-1.089.175-1.411 1.013-.419 1.093.257 1.691 2.395 2.119 3.108.622 3.793 1.725 1.825 2.941-.715.443-.883.275-.44-.44.392-.635.199-1.155-.429-1.155-.629 0-.943.563-.699 1.25s1.406 1.143 2.583 1.012c2.364-.263 2.755.723.988 2.49-.87.87-.485 1.456 1.566 2.391 2.476 1.128 6.173 7.115 5.7 9.23-.108.48.508.602 1.368.272 1.274-.489 1.374-.244.538 1.317-1.071 2.001.31 3.931 1.47 2.054 1.024-1.656 2.238-1.166 2.843 1.148.499 1.909.779 2.003 2.366.799 1.523-1.156 1.613-1.155.586 0-.967 1.087-.864 1.641.5 2.702 1.61 1.253 1.597 1.427-.212 2.825-1.06.819-2.152 1.264-2.427.989s.318-1.098 1.317-1.829c1.645-1.202 1.662-1.388.177-1.958-1.034-.397-1.64-.117-1.64.756 0 .762-.362 1.535-.804 1.719-.442.183-.224 1.458.485 2.833.949 1.84 1.293 2.038 1.304.75.008-.963.465-1.75 1.015-1.75s1 .342 1 .759c0 .418.96 1.36 2.134 2.093 1.78 1.111 2.278 1.11 3-.01.7-1.084 1.025-1.095 1.696-.058.508.786 1.574 1.004 2.75.563 1.559-.586 1.714-.451.825.716-1.65 2.167-2.459 4.937-1.441 4.937.496 0 1.201-.945 1.568-2.101.5-1.575.953-1.814 1.809-.958s.769 1.406-.349 2.195c-1.264.892-1.235.97.193.515.927-.296 1.866-.226 2.086.155.221.382.264.132.096-.556-.167-.687.187-1.25.787-1.25.699 0 .615-.628-.233-1.75-1.115-1.473-1.108-1.558.043-.535 1.789 1.591 2.514 8.285.897 8.285-.657 0-.959.236-.671.524.773.772 3.877-.606 3.336-1.481-.254-.412.223-1.602 1.061-2.646 1.425-1.775 1.448-1.743.352.505-.966 1.98-.925 2.306.237 1.861.774-.297 2.262.084 3.307.848S94.389 204 95.62 204s2.883.646 3.673 1.436c1.039 1.039 1.738 1.133 2.529.342s1.5-.755 2.566.129c.81.673 2.839 1.262 4.508 1.309 1.669.048 2.771.513 2.449 1.035s.368.438 1.534-.186c1.733-.928 2.121-.855 2.121.4 0 1.727 1.557 2.06 2.5.535.34-.55 1.154-.985 1.809-.967s.21.852-.988 1.853l-2.179 1.82 2.751-.103c2.299-.086 2.727-.523 2.602-2.653-.12-2.046.31-2.55 2.178-2.55 2.37 0 2.912.682 1.591 2.002-.404.405-.8 2.02-.879 3.589-.102 2.043.247 2.704 1.229 2.327.892-.342 1.161-1.365.77-2.922-.454-1.81-.193-2.396 1.067-2.396.917 0 1.389.45 1.049 1s-.141 1 .441 1 1.059-.648 1.059-1.441.52-1.762 1.155-2.154c.715-.443.883-.275.44.44-.392.635-.236 1.155.346 1.155s1.059.661 1.059 1.469c0 .892.587 1.243 1.494.895.822-.316 1.203-1.046.846-1.623-.407-.658-.159-.747.663-.239.977.604 1.168.26.748-1.347-.338-1.29-.167-1.912.423-1.547.544.335.698 1.765.344 3.176-.57 2.271-.459 2.412.965 1.23.892-.74 1.339-2.042 1.003-2.924-.491-1.291-.363-1.35.681-.314 1.043 1.036 1.612.848 3.024-1l1.738-2.276-.418 3c-.23 1.65-.176 2.438.119 1.75s.976-1.25 1.512-1.25c.537 0 .698.45.358 1s-.141 1 .441 1c1.352 0 1.333-.617-.105-3.316-1.006-1.888-.962-2.018.324-.958 1.14.94 1.762.952 2.664.05.901-.901 1.176-.779 1.176.524 0 .935-.525 1.7-1.167 1.7-.641 0-.931.236-.643.524.924.924 3.81-.69 3.81-2.131 0-.766.745-1.393 1.655-1.393 1.462 0 1.433-.25-.25-2.146-1.88-2.117-1.879-2.132.095-1.135 1.1.556 2.563.809 3.25.563.688-.247 1.25.039 1.25.635s-.45 1.083-1 1.083-1 .436-1 .969c0 1.689 2.781-.024 3.308-2.038.434-1.662 1.425-1.931 7.098-1.931H174v-4c0-2.2.363-4 .807-4s.721 1.244.616 2.765c-.183 2.642-.015 2.749 3.749 2.39 4.588-.438 4.585-.989-.006-1.339-4.363-.333-3.896-3.196.592-3.629 3.122-.302 3.242-.478 3.242-4.75V184h4.259c3.321 0 4.58-.496 5.713-2.25.798-1.238 1.357-2.588 1.24-3-.365-1.291 1.598-.817 2.068.5.245.688.815.905 1.266.483.452-.421.317-1.27-.298-1.885-.826-.826-.734-1.505.351-2.59 1.08-1.08 1.182-1.817.383-2.78-.825-.994-.592-1.467.965-1.961 2.306-.732 2.688-2.094.803-2.855-.687-.277-.29-.54.883-.583 1.289-.048 2.421-.969 2.859-2.329.852-2.646.852-2.665-.012-5.25-.391-1.169-.318-1.534.176-.879.879 1.167 6.09 1.014 7.204-.212.352-.387-.372-.455-1.609-.151-3.386.834-3.457-.542-.164-3.164l2.937-2.338-2.165-1.878c-1.191-1.033-1.598-1.878-.905-1.878.709 0 1.008-.656.684-1.5-.316-.825-.153-1.5.362-1.5s.69-.787.387-1.75c-.524-1.667-.482-1.667.892 0 1.681 2.041 2.825 2.292 2.273.5-1.183-3.841-1.548-7.152-.637-5.779 1.456 2.195 2.425.533 1.116-1.913-.647-1.208-1.645-1.825-2.331-1.439-.92.517-.918.37.008-.63.982-1.061 1.495-1.065 2.75-.024 1.046.869 1.542.919 1.542.157 0-.617-.45-1.122-1-1.122s-1-.948-1-2.107c0-1.576-.441-1.951-1.75-1.487q-1.754.622.545-1.181c1.262-.991 1.937-2.162 1.5-2.602-1.492-1.502-.799-6.119 1.205-8.029 1.789-1.705 1.808-1.837.176-1.253-1.098.393-2.474.004-3.454-.976-1.505-1.505-1.462-1.576.568-.932 1.732.55 2.071.367 1.599-.862-.329-.858-1.001-1.311-1.494-1.006-.492.304-.895-.4-.895-1.565 0-1.404-.421-1.88-1.25-1.412-1 .564-1 .436 0-.641.688-.741 1.25-2.382 1.25-3.647s.525-2.3 1.167-2.3c.641 0 .877-.289.524-.643-.354-.353-1.329-.073-2.167.623-1.263 1.048-1.524.977-1.524-.417 0-.924-.445-1.406-.989-1.07-.574.355-.729-.063-.371-.999.34-.885 1.184-1.392 1.876-1.126.826.317 1.088-.167.764-1.407-.272-1.039-.784-1.852-1.137-1.807-1.873.241-2.259-.31-1.152-1.643.68-.819 1.629-1.246 2.111-.948.481.297.579-.231.217-1.175-.483-1.256-.304-1.497.666-.898.901.558 1.086.434.578-.388-.411-.664-1.268-1.02-1.905-.79-1.509.544-4.658-1.088-4.658-2.415 0-.577.882-.752 2-.397 2.44.775 2.619-.753.308-2.628-1.385-1.123-1.545-1.127-.879-.022.634 1.054.402 1.138-1.058.385-1.029-.531-2.496-.742-3.26-.47-.849.302-1.118.055-.691-.635.384-.622 1.796-1.13 3.139-1.13s2.441-.41 2.441-.912-1.107-.79-2.459-.642c-2.068.227-2.31-.01-1.519-1.488.692-1.291.524-1.918-.631-2.361-.864-.332-2.05-.307-2.636.054-.676.418-.765.175-.245-.666.594-.962.362-1.15-.846-.686-.915.351-1.664.202-1.664-.33 0-.533.46-.969 1.023-.969s.25-1.18-.694-2.621c-1.589-2.425-1.78-2.481-2.544-.75-.697 1.579-.759 1.52-.399-.379.235-1.237-.013-2.25-.551-2.25s-.271-.707.594-1.571c2-2.001 1.991-2.527-.03-1.752-1.651.634-3.357-1.148-3.384-3.534-.008-.777.605-1.119 1.434-.801.941.361 1.265.076.923-.816-.654-1.703-3.437-2.9-2.849-1.225.514 1.465-2.244 5.311-3.155 4.4-.359-.359-.089-1.333.601-2.164 1.55-1.867.618-4.7-1.302-3.963-.775.298-2.089-.138-2.919-.969-.83-.83-1.886-1.194-2.346-.807s-.176-.172.631-1.24c.917-1.214.999-1.661.217-1.191-.809.486-1.278.114-1.329-1.058-.046-1.049-.291-1.284-.583-.559-.81 2.007-3.338 1.438-3.338-.75 0-1.1-.45-2-1-2s-1 .675-1 1.5-.73 1.5-1.622 1.5c-1.353 0-1.409-.258-.336-1.55 1.067-1.286.978-1.84-.52-3.25-1.709-1.608-1.771-1.592-1.151.3.533 1.626.293 1.537-1.283-.476-1.065-1.362-1.918-2.712-1.894-3 .153-1.858-.359-2.311-1.168-1.032-.751 1.188-1.196 1.238-2.184.25-1.613-1.613-3.179-1.607-2.209.008.51.849.209.81-.941-.122-.931-.755-1.692-.916-1.692-.357 0 .558-.762 1.308-1.694 1.665-1.592.611-1.592.537 0-1.222 2.278-2.517 2.139-3.523-.306-2.214-1.552.83-2 .76-2-.312 0-.76.969-1.815 2.154-2.343 1.811-.809 1.532-.946-1.756-.863-2.15.054-4.46.438-5.133.854s-2.02.346-2.994-.155-2.446-.712-3.271-.47c-1.333.392-1.333.323 0-.62 1.537-1.086 1.443-1.161-2-1.591l-3-.375c-.55-.069-.887-.631-.75-1.25s-.425-1.328-1.25-1.576c-1.21-.364-1.238-.268-.143.5 1.041.73 1.074 1.126.143 1.701-.93.575-.896.951.143 1.61 1.016.643.845.863-.679.875-1.311.01-2.103-.696-2.226-1.985-.415-4.354-.605-5-1.472-5-.495 0-.615.9-.266 2 .871 2.743-.349 2.535-1.469-.25-.647-1.61-.922-1.772-.968-.571m-9.063.88c0 .582.45.781 1 .441s1-.816 1-1.059-.45-.441-1-.441-1 .477-1 1.059m5.5-.059c-.34.55-.168 1 .382 1s1.278-.45 1.618-1 .168-1-.382-1-1.278.45-1.618 1m13.5 1.059c0 .582.45.781 1 .441s1-.816 1-1.059-.45-.441-1-.441-1 .477-1 1.059m7.5-.059c.34.55.816 1 1.059 1s.441-.45.441-1-.477-1-1.059-1-.781.45-.441 1m-48 2c.34.55.816 1 1.059 1s.441-.45.441-1-.477-1-1.059-1-.781.45-.441 1m46.5.465c0 .844.188 1.535.418 1.535s1.13.273 2 .607c2.299.882 1.942-1.344-.418-2.607-1.596-.854-2-.76-2 .465m-58.495 1.527c-.337.546-.15 1.783.416 2.75.868 1.484.999 1.329.836-.992-.213-3.027-.349-3.219-1.252-1.758M99 37.833c0 .459.655.834 1.456.834s1.224-.375.941-.834-.938-.833-1.456-.833-.941.375-.941.833m17.543.098c-.317.512-.193 1.167.274 1.456s.85-.13.85-.931c0-1.686-.316-1.833-1.124-.525m26 2c-.317.512-.193 1.167.274 1.456s.85-.13.85-.931c0-1.686-.316-1.833-1.124-.525M162 41.5c0 .825.177 1.5.393 1.5s.652-.675.969-1.5.139-1.5-.393-1.5c-.533 0-.969.675-.969 1.5m18.651 5.968c-.31.807-.133 1.734.393 2.059s.956-.336.956-1.468c0-2.415-.556-2.658-1.349-.591m-97.382 6.225c.973.254 2.323.237 3-.037s-.119-.481-1.769-.461-2.204.244-1.231.498M57.5 55c.34.55.816 1 1.059 1s.441-.45.441-1-.477-1-1.059-1-.781.45-.441 1M182 59.031c0 .533.675.969 1.5.969s1.5-.177 1.5-.393-.675-.652-1.5-.969-1.5-.139-1.5.393m17.5.969c.34.55.816 1 1.059 1s.441-.45.441-1-.477-1-1.059-1-.781.45-.441 1m-2.862 3.5c-.316.825-.139 1.5.393 1.5.533 0 .969-.675.969-1.5s-.177-1.5-.393-1.5-.652.675-.969 1.5M196.5 69c-.34.55.084 1 .941 1S199 69.55 199 69s-.423-1-.941-1-1.219.45-1.559 1m2.5 3.559c0 .857.45 1.281 1 .941s1-1.041 1-1.559-.45-.941-1-.941-1 .702-1 1.559M50.564 74.293c.376.986.935 1.541 1.243 1.233s.001-1.114-.683-1.793c-.988-.98-1.102-.865-.56.56M205 74c0 .55.477 1 1.059 1s.781-.45.441-1-.816-1-1.059-1-.441.45-.441 1M64 101c0 2.078.49 3 1.594 3 .876 0 1.829.9 2.116 2s1.146 2 1.907 2c.76 0 1.383.675 1.383 1.5 0 .833.889 1.5 2 1.5 1.364 0 2 .667 2 2.096 0 2.027.381 2.085 11.496 1.75 10.149-.305 11.497-.551 11.5-2.096.003-1.082.767-1.75 2.004-1.75 1.111 0 2-.667 2-1.5 0-.825.648-1.5 1.44-1.5.941 0 1.547-1.297 1.75-3.75.294-3.56.487-3.75 3.81-3.75s3.516.19 3.81 3.75c.244 2.938.731 3.75 2.25 3.75 1.067 0 1.94.675 1.94 1.5s.675 1.5 1.5 1.5 1.504.787 1.508 1.75c.008 1.561 1.302 1.765 12 1.886 11.131.125 11.992 0 11.992-1.75 0-1.219.707-1.886 2-1.886 1.111 0 2-.667 2-1.5 0-.825.675-1.5 1.5-1.5.833 0 1.5-.889 1.5-2q0-2 2-2c1.556 0 2-.667 2-3v-3H64zm6.667-.333C69.175 102.159 70.049 105 72 105c1.111 0 2 .667 2 1.5 0 .825.675 1.5 1.5 1.5.833 0 1.5.889 1.5 2 0 1.467.667 2 2.5 2s2.5-.533 2.5-2c0-1.1.398-2 .883-2 .486 0 1.119.9 1.407 2 .319 1.222 1.364 2 2.686 2 1.671 0 2.09-.511 1.843-2.25-.203-1.425-.962-2.199-2.069-2.111-1.098.087-1.75-.565-1.75-1.75 0-1.039-.623-1.889-1.383-1.889-.761 0-1.619-.9-1.907-2-.287-1.1-1.282-2-2.21-2s-1.923.9-2.21 2c-.288 1.1-.868 2-1.29 2s-1.002-.9-1.29-2c-.509-1.949-2.704-2.673-4.043-1.333M120 102.5c0 1.556.567 2.5 1.5 2.5.825 0 1.5.675 1.5 1.5 0 .833.889 1.5 2 1.5q2 0 2 2t2 2 2-2c0-1.111.667-2 1.5-2s1.5.889 1.5 2c0 1.356.667 2 2.07 2 1.581 0 1.988-.531 1.726-2.25-.189-1.237-.895-2.138-1.57-2-.674.138-1.226-.65-1.226-1.75q0-2-2-2t-2-2-2-2-2 2c0 1.111-.667 2-1.5 2s-1.5-.889-1.5-2q0-2-2-2c-1.467 0-2 .667-2 2.5m-42 3.833c0 .734.675 1.334 1.5 1.334s1.5-.6 1.5-1.334c0-.733-.675-1.333-1.5-1.333s-1.5.6-1.5 1.333m50 .167c0 .825.45 1.5 1 1.5s1-.675 1-1.5-.45-1.5-1-1.5-1 .675-1 1.5m86 4.306c0 .522.675 1.509 1.5 2.194s1.5.933 1.5.551-.675-1.369-1.5-2.194-1.5-1.073-1.5-.551M217.275 122c.083 1.1.477 2 .876 2 .398 0 .657-.9.574-2s-.477-2-.876-2c-.398 0-.657.9-.574 2m-182.196.583c.048 1.165.285 1.402.604.605.289-.722.253-1.585-.079-1.917s-.568.258-.525 1.312M214 125c0 .55.45 1 1 1s1-.45 1-1-.45-1-1-1-1 .45-1 1m5.5 7c-.34.55-.141 1 .441 1s1.059-.45 1.059-1-.198-1-.441-1-.719.45-1.059 1m-181.305 9.5c.02 1.65.244 2.204.498 1.231s.237-2.323-.037-3-.481.119-.461 1.769m1.805-.059c0 .857.45 1.559 1 1.559s1-.423 1-.941-.45-1.219-1-1.559-1 .084-1 .941m174 6.937c0 .207.787.995 1.75 1.75 1.586 1.243 1.621 1.208.378-.378-1.307-1.666-2.128-2.195-2.128-1.372M204 153c0 .55.477 1 1.059 1s.781-.45.441-1-.816-1-1.059-1-.441.45-.441 1m6.813 3.683c.721.289 1.584.253 1.916-.079s-.258-.568-1.312-.525c-1.165.048-1.402.285-.604.604m-11.306 8.306c-.35.566.051.734.941.393 1.732-.665 2.049-1.382.611-1.382-.518 0-1.216.445-1.552.989M192.32 171c0 3.575.182 5.037.403 3.25s.222-4.713 0-6.5c-.221-1.787-.403-.325-.403 3.25m-147.507-4.317c.721.289 1.584.253 1.916-.079s-.258-.568-1.312-.525c-1.165.048-1.402.285-.604.604M49 170.941c0 .518.45 1.219 1 1.559s1-.084 1-.941S50.55 170 50 170s-1 .423-1 .941m3.605.647c-.805 2.096-.767 2.412.288 2.412 1.25 0 2.203-2.823 1.168-3.462-.468-.29-1.124.183-1.456 1.05M201.5 173c-.34.55.219 1 1.241 1s2.5.563 3.282 1.25c.783.688.579.238-.455-1-2.052-2.458-3.119-2.786-4.068-1.25m-9.421 6.583c.048 1.165.285 1.402.604.605.289-.722.253-1.585-.079-1.917s-.568.258-.525 1.312M193 185c0 .55.477 1 1.059 1s.781-.45.441-1-.816-1-1.059-1-.441.45-.441 1m-132 1c0 .55.477 1 1.059 1s.781-.45.441-1-.816-1-1.059-1-.441.45-.441 1m123.267 2.823c.037 2.022.245 2.914.463 1.982.253-1.083.973-1.473 1.997-1.08 1.018.391 1.353.214.921-.486-.624-1.009.928-2.687 2.519-2.724.366-.008.903-.251 1.192-.541.289-.289-1.204-.593-3.317-.677-3.798-.15-3.841-.11-3.775 3.526m.733-1.764c0 .582.45.781 1 .441s1-.816 1-1.059-.45-.441-1-.441-1 .477-1 1.059m-115.35 1.888c-1.682.59-1.674.721.141 2.364 1.533 1.387 2.134 1.481 2.965.464 1.406-1.719-.728-3.662-3.106-2.828M189.5 191c.34.55.816 1 1.059 1s.441-.45.441-1-.477-1-1.059-1-.781.45-.441 1M88.667 202.667c-.367.366-.667 1.131-.667 1.7 0 .626.466.567 1.183-.15.651-.651.951-1.416.667-1.7s-.817-.217-1.183.15m76.333.215c0 .55.45 1.278 1 1.618s1 .168 1-.382-.45-1.278-1-1.618-1-.168-1 .382m-31.541 3.185c-.363.586-.445 1.281-.183 1.543s.743-.218 1.069-1.067c.676-1.762.1-2.072-.886-.476M90 206.255c0 .275.635 1.027 1.411 1.671 1.087.902 1.583.873 2.16-.127.412-.715.381-.965-.069-.558-.45.408-1.422.24-2.16-.372-.738-.613-1.342-.889-1.342-.614M102 208c-.901.582-1.025.975-.309.985.655.008 1.469-.435 1.809-.985.767-1.242.421-1.242-1.5 0m4.5 1c.34.55.816 1 1.059 1s.441-.45.441-1-.477-1-1.059-1-.781.45-.441 1m-8.75 1.662c.688.278 1.813.278 2.5 0 .688-.277.125-.504-1.25-.504s-1.937.227-1.25.504m10.063 2.021c.721.289 1.584.253 1.916-.079s-.258-.568-1.312-.525c-1.165.048-1.402.285-.604.604M139 213c0 .55.45 1 1 1s1-.45 1-1-.45-1-1-1-1 .45-1 1m-21.49 1.016c.346.559 1.047.758 1.559.441 1.387-.857 1.129-1.457-.628-1.457-.857 0-1.276.457-.931 1.016M135 214c0 .55.477 1 1.059 1s.781-.45.441-1-.816-1-1.059-1-.441.45-.441 1m-21 9c0 .55.477 1 1.059 1s.781-.45.441-1-.816-1-1.059-1-.441.45-.441 1"/></svg>